<?xml version="1.0" encoding="UTF-8" standalone="no"?>
<!-- Created with Inkscape (http://www.inkscape.org/) -->

<svg
   xmlns:dc="http://purl.org/dc/elements/1.1/"
   xmlns:cc="http://creativecommons.org/ns#"
   xmlns:rdf="http://www.w3.org/1999/02/22-rdf-syntax-ns#"
   xmlns:svg="http://www.w3.org/2000/svg"
   xmlns="http://www.w3.org/2000/svg"
   xmlns:sodipodi="http://sodipodi.sourceforge.net/DTD/sodipodi-0.dtd"
   xmlns:inkscape="http://www.inkscape.org/namespaces/inkscape"
   version="1.1"
   id="svg2"
   width="1277"
   height="1277"
   viewBox="0 0 1277.0001 1277"
   sodipodi:docname="covid-oss-help.svg"
   inkscape:version="0.92.3 (2405546, 2018-03-11)">
  <metadata
     id="metadata8">
    <rdf:RDF>
      <cc:Work
         rdf:about="">
        <dc:format>image/svg+xml</dc:format>
        <dc:type
           rdf:resource="http://purl.org/dc/dcmitype/StillImage" />
        <dc:title></dc:title>
      </cc:Work>
    </rdf:RDF>
  </metadata>
  <defs
     id="defs6" />
  <sodipodi:namedview
     pagecolor="#ffffff"
     bordercolor="#666666"
     borderopacity="1"
     objecttolerance="10"
     gridtolerance="10"
     guidetolerance="10"
     inkscape:pageopacity="0"
     inkscape:pageshadow="2"
     inkscape:window-width="2426"
     inkscape:window-height="1329"
     id="namedview4"
     showgrid="false"
     inkscape:zoom="0.5"
     inkscape:cx="639.46297"
     inkscape:cy="548.98825"
     inkscape:window-x="134"
     inkscape:window-y="55"
     inkscape:window-maximized="1"
     inkscape:current-layer="layer2"
     fit-margin-top="10"
     fit-margin-left="35"
     fit-margin-bottom="10"
     fit-margin-right="35" />
  <g
     inkscape:groupmode="layer"
     id="layer2"
     inkscape:label="balls"
     style="display:inline"
     sodipodi:insensitive="true"
     transform="translate(-29.990234,-51.108491)">
    <circle
       style="fill:#000101;fill-opacity:1;stroke:none;stroke-width:7.55905533;stroke-linejoin:round;stroke-miterlimit:4;stroke-dasharray:none;stroke-opacity:1"
       id="path4523"
       cx="1092.6198"
       cy="301.8707"
       r="44.194172" />
    <circle
       style="fill:#000101;fill-opacity:1;stroke:none;stroke-width:7.55905533;stroke-linejoin:round;stroke-miterlimit:4;stroke-dasharray:none;stroke-opacity:1"
       id="path4523-3"
       cx="1092.6198"
       cy="1068.6746"
       r="44.194172" />
    <circle
       style="fill:#000101;fill-opacity:1;stroke:none;stroke-width:7.55905533;stroke-linejoin:round;stroke-miterlimit:4;stroke-dasharray:none;stroke-opacity:1"
       id="path4523-3-7"
       cx="244.94266"
       cy="1068.6746"
       r="44.194172" />
    <circle
       style="fill:#000101;fill-opacity:1;stroke:none;stroke-width:7.55905533;stroke-linejoin:round;stroke-miterlimit:4;stroke-dasharray:none;stroke-opacity:1"
       id="path4523-3-7-5"
       cx="244.94266"
       cy="301.8707"
       r="44.194172" />
  </g>
  <g
     inkscape:groupmode="layer"
     id="layer3"
     inkscape:label="hands"
     sodipodi:insensitive="true"
     transform="translate(-29.990234,-51.108491)">
    <g
       id="g4652"
       transform="translate(1.3193839)">
      <path
         inkscape:connector-curvature="0"
         id="path4588"
         d="m 652.80034,1300.3749 c 0,0 6.61665,-6.4294 7.55296,-7.3657 0.93632,-0.9363 4.74401,-1.8726 6.55422,-1.1236 1.81022,0.7491 2.62169,1.9351 3.30832,3.2459 0.68664,1.3109 0.93632,4.5568 0.24969,5.6803 -0.68663,1.1236 -14.54413,15.7926 -15.73013,16.3544 -1.186,0.5618 -4.30706,0.4369 -6.05485,-0.2497 -1.74779,-0.6866 -3.18348,-1.623 -3.62043,-4.2446 -0.43695,-2.6217 0.24969,-4.8065 1.24842,-5.9925 0.99874,-1.186 6.4918,-6.3045 6.4918,-6.3045 z"
         style="fill:#020202;fill-opacity:1;stroke:none;stroke-width:1px;stroke-linecap:butt;stroke-linejoin:miter;stroke-opacity:1" />
      <path
         inkscape:connector-curvature="0"
         id="path4588-3"
         d="m 637.02752,1289.2544 c 0,0 6.61665,-6.4294 7.55296,-7.3657 0.93632,-0.9363 4.74401,-1.8726 6.55422,-1.1236 1.81022,0.7491 2.62169,1.9351 3.30832,3.2459 0.68664,1.3109 0.93632,4.5568 0.24969,5.6803 -0.68663,1.1236 -14.54413,15.7926 -15.73013,16.3544 -1.186,0.5618 -4.30706,0.4369 -6.05485,-0.2497 -1.74779,-0.6866 -3.18348,-1.623 -3.62043,-4.2446 -0.43695,-2.6217 0.24969,-4.8065 1.24842,-5.9925 0.99874,-1.186 6.4918,-6.3045 6.4918,-6.3045 z"
         style="fill:#000600;fill-opacity:1;stroke:none;stroke-width:1px;stroke-linecap:butt;stroke-linejoin:miter;stroke-opacity:1" />
      <path
         inkscape:connector-curvature="0"
         id="path4588-3-5"
         d="m 621.11012,1279.6414 c 0,0 6.61665,-6.4294 7.55296,-7.3657 0.93632,-0.9363 4.74401,-1.8726 6.55422,-1.1236 1.81022,0.7491 2.62169,1.9351 3.30832,3.2459 0.68664,1.3109 0.93632,4.5568 0.24969,5.6803 -0.68663,1.1236 -14.54413,15.7926 -15.73013,16.3544 -1.186,0.5618 -4.30706,0.4369 -6.05485,-0.2497 -1.74779,-0.6866 -3.18348,-1.623 -3.62043,-4.2446 -0.43695,-2.6217 0.24969,-4.8065 1.24842,-5.9925 0.99874,-1.186 6.4918,-6.3045 6.4918,-6.3045 z"
         style="fill:#000600;fill-opacity:1;stroke:none;stroke-width:1px;stroke-linecap:butt;stroke-linejoin:miter;stroke-opacity:1" />
      <path
         inkscape:connector-curvature="0"
         id="path4588-3-5-6"
         d="m 606.37873,1267.8439 c 0,0 6.61665,-6.4294 7.55296,-7.3657 0.93632,-0.9363 4.74401,-1.8726 6.55422,-1.1236 1.81022,0.7491 2.62169,1.9351 3.30832,3.2459 0.68664,1.3109 0.93632,4.5568 0.24969,5.6803 -0.68663,1.1236 -14.54413,15.7926 -15.73013,16.3544 -1.186,0.5618 -4.30706,0.4369 -6.05485,-0.2497 -1.74779,-0.6866 -3.18348,-1.623 -3.62043,-4.2446 -0.43695,-2.6217 0.24969,-4.8065 1.24842,-5.9925 0.99874,-1.186 6.4918,-6.3045 6.4918,-6.3045 z"
         style="fill:#000600;fill-opacity:1;stroke:none;stroke-width:1px;stroke-linecap:butt;stroke-linejoin:miter;stroke-opacity:1" />
      <path
         inkscape:connector-curvature="0"
         id="path4740"
         d="m 657.48193,1225.095 c 0,0 16.35434,-15.7926 19.03845,-16.8537 2.68411,-1.0612 6.11727,-1.4357 11.73517,0.6866 5.61791,2.1223 11.23581,6.8663 22.22193,6.1173 10.98612,-0.7491 20.16203,-4.9937 26.52899,-8.8014 6.36696,-3.8077 8.11475,-5.2434 9.61286,-5.181 1.4981,0.062 3.87011,4.8065 7.49053,11.7352 3.62043,6.9288 12.60907,24.157 13.67023,27.5902 1.06116,3.4331 0.81148,3.9325 -1.37326,5.8676 -2.18474,1.935 -31.83479,23.8448 -34.20679,25.4054 -2.372,1.5605 -4.05737,2.1847 -5.68032,0.3745 -1.62295,-1.8102 -30.64879,-30.7736 -34.08195,-34.1444 -3.43316,-3.3707 -11.67275,-3.6204 -15.79255,-0.4993 -4.11979,3.121 -10.61159,9.8625 -16.35434,11.86 -5.74274,1.9974 -11.11096,1.935 -13.35812,0.8739 -2.24717,-1.0612 -5.49307,-4.3695 -5.49307,-6.9912 0,-2.6217 0.31211,-4.5567 5.49307,-8.8014 5.18095,-4.2446 10.54917,-9.2383 10.54917,-9.2383 z"
         style="fill:#000000;fill-opacity:1;stroke:none;stroke-width:1px;stroke-linecap:butt;stroke-linejoin:miter;stroke-opacity:1" />
      <path
         sodipodi:nodetypes="cccscscssccccccccccccccccccccsscsccscccsccsccccc"
         inkscape:connector-curvature="0"
         id="path4742"
         d="m 574.68217,1223.3403 c 0,0 9.13665,-19.2443 9.88701,-20.7009 0.75035,-1.4566 1.63312,-2.3835 4.10487,-1.0593 2.47175,1.3241 12.62359,7.9008 17.74364,10.4608 5.12006,2.56 9.22493,3.4428 13.02083,3.5311 3.79591,0.088 14.65396,-2.7366 22.42232,-4.5904 7.76836,-1.8538 20.39195,-2.0745 21.27472,-1.5449 0.88276,0.5297 1.5007,1.1476 -0.48553,2.7366 -1.98623,1.589 -22.46645,21.2306 -25.60028,24.232 -3.13383,3.0014 -3.53107,9.2249 1.58898,14.2126 5.12006,4.9876 8.51872,6.6207 12.09393,6.4442 3.57521,-0.1766 14.12429,-2.8249 21.36299,-9.0043 7.2387,-6.1793 6.53249,-5.738 8.3863,-6.709 1.85382,-0.9711 5.25247,-1.589 7.94492,0.3531 2.69244,1.9421 29.8817,29.7052 32.61829,32.4417 2.73658,2.7366 2.42761,9.2691 0.17655,11.8291 -2.25106,2.5601 -5.69386,3.487 -8.03319,3.3987 -2.33934,-0.088 -3.70763,-1.28 -4.41384,-1.0593 -0.70622,0.2207 -0.17656,1.28 -0.5738,3.7076 -0.39725,2.4276 -0.88277,3.9725 -3.31038,5.8704 -2.42762,1.898 -5.738,2.2511 -8.07733,1.898 -2.33934,-0.3532 -3.31038,-1.2359 -4.10488,-1.1035 -0.79449,0.1324 -0.66207,0.044 -1.1476,2.8249 -0.48552,2.7807 -0.66207,3.0896 -2.78072,5.2524 -2.11864,2.1628 -4.98764,3.178 -7.68008,2.6483 -2.69244,-0.5296 -2.6483,-1.3683 -3.92832,-0.7503 -1.28001,0.6179 -1.05932,2.6924 -1.19174,3.6193 -0.13241,0.9269 -1.32415,2.9573 -4.06073,4.8553 -2.73658,1.8979 -8.78354,0.5296 -8.87182,0 -0.0883,-0.5297 -0.97105,0.2206 3.57521,-4.0608 4.54626,-4.2814 8.16561,-7.4594 9.22493,-10.2401 1.05932,-2.7807 1.58898,-7.5035 -1.85381,-11.9174 -3.4428,-4.4138 -5.88399,-5.0942 -9.81231,-4.079 -3.92832,1.0152 -2.83041,-1.2965 -2.99403,-3.4361 -0.13242,-2.0303 -1.1414,-4.005 -4.76075,-6.1236 -3.61935,-2.1187 -5.8729,-4.2644 -9.18079,-2.8249 -0.97497,0.4243 -2.18287,1.4385 -2.77874,0.953 -0.28689,-1.1917 0.35112,-1.4827 -0.53165,-3.0716 -0.88276,-1.589 -0.44138,-2.4718 -3.2221,-4.2815 -2.78072,-1.8096 -5.78213,-3.3103 -8.69527,-2.4717 -2.91313,0.8386 -2.16278,0.2207 -2.38347,-1.6331 -0.22069,-1.8539 -0.48552,-3.8842 -3.75177,-6.5767 -3.26624,-2.6924 -5.64971,-4.6786 -9.97528,-3.9724 -4.32556,0.7062 -13.24152,9.5339 -14.87465,11.6967 -1.63312,2.1627 -2.99835,2.1975 -3.74871,2.1092 -0.75035,-0.088 -24.7494,-18.2977 -28.58944,-21.1226 -3.84004,-2.8248 -1.7367,-6.2338 0.0288,-9.809 1.76554,-3.5752 5.95869,-12.9326 5.95869,-12.9326 z"
         style="fill:#000000;fill-opacity:1;stroke:none;stroke-width:1px;stroke-linecap:butt;stroke-linejoin:miter;stroke-opacity:1" />
    </g>
  </g>
  <g
     inkscape:groupmode="layer"
     id="layer4"
     inkscape:label="oss"
     style="opacity:1"
     sodipodi:insensitive="true"
     transform="translate(-29.990234,-51.108491)">
    <path
       inkscape:connector-curvature="0"
       id="path4777"
       d="m 668.7812,61.064302 a 68.0027,68.0027 0 0 0 -68.00286,68.002858 68.0027,68.0027 0 0 0 46.86956,64.54628 c 0.79175,-0.66052 1.55094,-1.47443 2.0162,-2.47649 1.02835,-2.21491 12.97296,-41.05519 13.21028,-41.92533 0.13067,-0.47914 -0.10817,-1.89826 -0.61781,-3.44258 a 17.950219,17.950219 0 0 1 -11.42512,-16.70188 17.950219,17.950219 0 0 1 17.94975,-17.95148 17.950219,17.950219 0 0 1 17.94975,17.95148 17.950219,17.950219 0 0 1 -11.47413,16.73863 c -0.30457,0.83861 -0.47864,1.69694 -0.35878,2.53599 0.39552,2.76863 11.62894,42.71508 13.84385,44.21806 0.47048,0.31925 1.0806,0.60943 1.72392,0.89432 a 68.0027,68.0027 0 0 0 46.31825,-64.387 68.0027,68.0027 0 0 0 -68.00286,-68.002858 z"
       style="opacity:1;fill:#000000;fill-opacity:0.99215686;stroke:none;stroke-width:6.81850386;stroke-linejoin:round;stroke-miterlimit:4;stroke-dasharray:none;stroke-opacity:1" />
  </g>
  <g
     inkscape:groupmode="layer"
     id="layer7"
     inkscape:label="outer_circle"
     style="display:inline"
     sodipodi:insensitive="true"
     transform="translate(-29.990234,-51.108491)">
    <path
       style="opacity:1;fill:#bfbfbf;fill-opacity:0.99215686;stroke:none;stroke-width:14.80716801;stroke-linejoin:round;stroke-miterlimit:4;stroke-dasharray:none;stroke-opacity:1"
       d="m 765.71289,118.13477 a 97.457619,97.457619 0 0 1 0.52539,9.20507 97.457619,97.457619 0 0 1 -0.69336,10.78125 580.06843,552.59612 0 0 1 268.87698,116.14063 75.267616,75.267616 0 0 1 15.7656,-14.46289 603.79083,575.19501 0 0 0 -284.47461,-121.66406 z m -193.93945,0.20312 a 603.79083,575.19501 0 0 0 -284.29102,121.44336 75.267616,75.267616 0 0 1 15.7207,14.58398 580.06843,552.59612 0 0 1 268.91602,-115.73437 97.457619,97.457619 0 0 1 -0.79492,-11.29102 97.457619,97.457619 0 0 1 0.44922,-9.00195 z M 183.11523,344.64648 A 603.79083,575.19501 0 0 0 64.990234,685.27344 603.79083,575.19501 0 0 0 183.06445,1025.8574 75.267616,75.267616 0 0 1 200.52734,1008.0586 580.06843,552.59612 0 0 1 88.712891,682.88672 580.06843,552.59612 0 0 1 198.31641,360.81055 75.267616,75.267616 0 0 1 183.11523,344.64648 Z m 971.38277,0.041 a 75.267616,75.267616 0 0 1 -15.0585,16.03906 580.06843,552.59612 0 0 1 109.4101,322.16016 580.06843,552.59612 0 0 1 -111.9043,325.1406 75.267616,75.267616 0 0 1 17.502,17.8711 603.79083,575.19501 0 0 0 118.125,-340.62498 A 603.79083,575.19501 0 0 0 1154.498,344.6875 Z m -122.4648,768.40632 a 580.06843,552.59612 0 0 1 -243.04101,110.164 125.70621,125.70621 0 0 1 4.8164,24.3809 603.79083,575.19501 0 0 0 256.27151,-116.875 75.267616,75.267616 0 0 1 -18.0469,-17.6699 z m -726.67968,0.2675 a 75.267616,75.267616 0 0 1 -17.97657,17.3848 603.79083,575.19501 0 0 0 256.3086,116.5781 125.70621,125.70621 0 0 1 4.9707,-24.4863 580.06843,552.59612 0 0 1 -243.30273,-109.4766 z"
       id="path4790"
       inkscape:connector-curvature="0" />
  </g>
  <g
     inkscape:groupmode="layer"
     id="layer8"
     inkscape:label="globe"
     transform="translate(-29.990234,-51.108491)">
    <g
       id="g5185">
      <path
         inkscape:connector-curvature="0"
         id="path4790-0-6-2-6"
         d="M 668.78125,833.68555 A 447.01123,425.84057 0 0 0 349.03711,962.02148 L 368.125,980.5332 A 420.13795,400.24001 0 0 1 668.78125,859.28516 420.13795,400.24001 0 0 1 970.98828,981.5625 l 18.26953,-18.26953 A 447.01123,425.84057 0 0 0 668.78125,833.68555 Z"
         style="display:inline;opacity:1;fill:#050505;fill-opacity:0.99215686;stroke:none;stroke-width:10.96235657;stroke-linejoin:round;stroke-miterlimit:4;stroke-dasharray:none;stroke-opacity:1" />
      <path
         id="path4790-0-6"
         d="M 668.78125,257.04672 A 447.01123,425.84057 0 0 0 231.24804,597.88657 h 27.24024 A 420.13795,400.24001 0 0 1 668.78125,282.64633 420.13795,400.24001 0 0 1 1078.8086,597.88657 h 27.9668 A 447.01123,425.84057 0 0 0 668.78125,257.04672 Z M 230.78711,767.88657 A 447.01123,425.84057 0 0 0 668.78125,1108.7264 447.01123,425.84057 0 0 0 1106.3144,767.88657 h -27.2402 A 420.13795,400.24001 0 0 1 668.78125,1083.1268 420.13795,400.24001 0 0 1 258.7539,767.88657 Z"
         style="display:inline;opacity:1;fill:#050505;fill-opacity:0.99215686;stroke:none;stroke-width:10.96235657;stroke-linejoin:round;stroke-miterlimit:4;stroke-dasharray:none;stroke-opacity:1"
         inkscape:connector-curvature="0" />
      <path
         inkscape:connector-curvature="0"
         id="path4790-0-6-2"
         d="m 357.91211,395.9082 -16.78906,20.32227 A 447.01123,425.84057 0 0 0 668.78125,553.17969 447.01123,425.84057 0 0 0 996.00781,416.91016 L 977.34375,398.24805 A 420.13795,400.24001 0 0 1 668.78125,527.58008 420.13795,400.24001 0 0 1 357.91211,395.9082 Z"
         style="display:inline;opacity:1;fill:#050505;fill-opacity:0.99215686;stroke:none;stroke-width:10.96235657;stroke-linejoin:round;stroke-miterlimit:4;stroke-dasharray:none;stroke-opacity:1" />
      <path
         id="path4790-0-6-2-1"
         d="M 636.75976,268.05063 A 444.12764,466.20744 0 0 0 402.14062,597.88657 h 26.92969 A 417.42771,438.18014 0 0 1 689.8789,273.54672 Z M 402.13671,767.88657 A 444.12764,466.20744 0 0 0 630.79687,1094.6444 L 689.25,1091.5955 A 417.42771,438.18014 0 0 1 429.21679,767.88657 Z"
         style="display:inline;opacity:1;fill:#050505;fill-opacity:0.99215686;stroke:none;stroke-width:11.43311882;stroke-linejoin:round;stroke-miterlimit:4;stroke-dasharray:none;stroke-opacity:1"
         inkscape:connector-curvature="0" />
      <path
         id="path4790-0-6-2-1-0"
         d="m 697.46289,265.93735 -53.18555,6.69336 a 417.42771,438.18014 0 0 1 263.9043,325.25586 h 27.27539 A 444.12764,466.20744 0 0 0 697.46289,265.93735 Z m 211.00586,501.94922 a 417.42771,438.18014 0 0 1 -263.3086,325.22073 l 65.5332,-0.4004 A 444.12764,466.20744 0 0 0 935.59179,767.88657 Z"
         style="display:inline;opacity:1;fill:#050505;fill-opacity:0.99215686;stroke:none;stroke-width:11.43311882;stroke-linejoin:round;stroke-miterlimit:4;stroke-dasharray:none;stroke-opacity:1"
         inkscape:connector-curvature="0" />
      <path
         inkscape:connector-curvature="0"
         id="rect5146"
         d="m 656.06964,261.98227 v 335.9043 h 25.42322 v -335.9043 z m 0,505.9043 v 335.90433 h 25.42322 V 767.88657 Z"
         style="opacity:1;fill:#040404;fill-opacity:0.99215686;stroke:none;stroke-width:6.39775562;stroke-linejoin:round;stroke-miterlimit:4;stroke-dasharray:none;stroke-opacity:1" />
    </g>
    <g
       aria-label="COVID OSS HELP"
       transform="matrix(3.0498682,0,0,3.0498682,1983.725,-522.82626)"
       style="font-style:normal;font-variant:normal;font-weight:bold;font-stretch:normal;font-size:40.00140381px;line-height:1.25;font-family:sans-serif;-inkscape-font-specification:'sans-serif, Bold';font-variant-ligatures:normal;font-variant-caps:normal;font-variant-numeric:normal;font-feature-settings:normal;text-align:start;letter-spacing:0px;word-spacing:0px;writing-mode:lr-tb;text-anchor:start;fill:#000000;fill-opacity:1;stroke:none"
       id="flowRoot5187">
      <path
         d="m -591.84672,408.2922 q -2.07038,1.07426 -4.31655,1.62115 -2.24618,0.5469 -4.68767,0.5469 -7.28541,0 -11.54337,-4.06265 -4.25796,-4.08217 -4.25796,-11.05507 0,-6.99243 4.25796,-11.05508 4.25796,-4.08217 11.54337,-4.08217 2.44149,0 4.68767,0.54689 2.24617,0.5469 4.31655,1.62115 v 6.03537 q -2.08991,-1.42583 -4.12123,-2.08992 -2.03133,-0.66408 -4.2775,-0.66408 -4.02358,0 -6.32835,2.57821 -2.30476,2.57822 -2.30476,7.10963 0,4.51188 2.30476,7.09009 2.30477,2.57822 6.32835,2.57822 2.24617,0 4.2775,-0.66409 2.03132,-0.66409 4.12123,-2.08992 z"
         id="path5199"
         inkscape:connector-curvature="0" />
      <path
         d="m -572.27572,385.65469 q -3.43762,0 -5.33222,2.53915 -1.89459,2.53915 -1.89459,7.14869 0,4.59 1.89459,7.12915 1.8946,2.53916 5.33222,2.53916 3.45716,0 5.35175,-2.53916 1.8946,-2.53915 1.8946,-7.12915 0,-4.60954 -1.8946,-7.14869 -1.89459,-2.53915 -5.35175,-2.53915 z m 0,-5.44941 q 7.0315,0 11.01601,4.02358 3.98452,4.02358 3.98452,11.11367 0,7.07056 -3.98452,11.09414 -3.98451,4.02358 -11.01601,4.02358 -7.01196,0 -11.01601,-4.02358 -3.98451,-4.02358 -3.98451,-11.09414 0,-7.09009 3.98451,-11.11367 4.00405,-4.02358 11.01601,-4.02358 z"
         id="path5201"
         inkscape:connector-curvature="0" />
      <path
         d="m -556.1814,380.73264 h 7.55886 l 7.73464,21.52419 7.71512,-21.52419 h 7.55886 l -10.80116,29.16118 h -8.96516 z"
         id="path5203"
         inkscape:connector-curvature="0" />
      <path
         d="m -521.76613,380.73264 h 7.5198 v 29.16118 h -7.5198 z"
         id="path5205"
         inkscape:connector-curvature="0" />
      <path
         d="m -499.32394,386.41643 v 17.7936 h 2.69541 q 4.60953,0 7.03149,-2.28524 2.4415,-2.28524 2.4415,-6.64086 0,-4.33609 -2.42196,-6.60179 -2.42196,-2.26571 -7.05103,-2.26571 z m -7.5198,-5.68379 h 7.92997 q 6.64086,0 9.88316,0.95707 3.26183,0.93753 5.58613,3.20323 2.05086,1.97273 3.04699,4.55094 0.99612,2.57822 0.99612,5.84005 0,3.3009 -0.99612,5.89865 -0.99613,2.57821 -3.04699,4.55094 -2.34383,2.2657 -5.62519,3.22277 -3.28137,0.93753 -9.8441,0.93753 h -7.92997 z"
         id="path5207"
         inkscape:connector-curvature="0" />
      <path
         d="m -446.41193,385.65469 q -3.43762,0 -5.33221,2.53915 -1.8946,2.53915 -1.8946,7.14869 0,4.59 1.8946,7.12915 1.89459,2.53916 5.33221,2.53916 3.45716,0 5.35176,-2.53916 1.89459,-2.53915 1.89459,-7.12915 0,-4.60954 -1.89459,-7.14869 -1.8946,-2.53915 -5.35176,-2.53915 z m 0,-5.44941 q 7.0315,0 11.01602,4.02358 3.98451,4.02358 3.98451,11.11367 0,7.07056 -3.98451,11.09414 -3.98452,4.02358 -11.01602,4.02358 -7.01196,0 -11.01601,-4.02358 -3.98451,-4.02358 -3.98451,-11.09414 0,-7.09009 3.98451,-11.11367 4.00405,-4.02358 11.01601,-4.02358 z"
         id="path5209"
         inkscape:connector-curvature="0" />
      <path
         d="m -405.45346,381.65064 v 6.17209 q -2.40243,-1.07425 -4.68766,-1.62115 -2.28524,-0.54689 -4.31656,-0.54689 -2.69541,0 -3.98452,0.74221 -1.2891,0.74222 -1.2891,2.30477 0,1.17192 0.8594,1.836 0.87894,0.64456 3.16418,1.11332 l 3.20323,0.64456 q 4.86345,0.97659 6.91431,2.96885 2.05085,1.99226 2.05085,5.66426 0,4.82439 -2.87119,7.18775 -2.85167,2.34384 -8.73078,2.34384 -2.77353,0 -5.5666,-0.52737 -2.79307,-0.52736 -5.58613,-1.56255 v -6.34788 q 2.79306,1.48443 5.39081,2.24617 2.61728,0.74222 5.03924,0.74222 2.46102,0 3.76966,-0.82034 1.30864,-0.82035 1.30864,-2.34384 0,-1.36723 -0.89847,-2.10945 -0.87893,-0.74221 -3.53528,-1.32817 l -2.91025,-0.64455 q -4.37516,-0.93753 -6.40648,-2.98839 -2.01179,-2.05085 -2.01179,-5.52754 0,-4.35562 2.8126,-6.69945 2.8126,-2.34383 8.08622,-2.34383 2.40243,0 4.94158,0.37111 2.53915,0.35157 5.25409,1.07425 z"
         id="path5211"
         inkscape:connector-curvature="0" />
      <path
         d="m -378.42126,381.65064 v 6.17209 q -2.40243,-1.07425 -4.68767,-1.62115 -2.28523,-0.54689 -4.31656,-0.54689 -2.6954,0 -3.98451,0.74221 -1.28911,0.74222 -1.28911,2.30477 0,1.17192 0.85941,1.836 0.87893,0.64456 3.16417,1.11332 l 3.20324,0.64456 q 4.86345,0.97659 6.9143,2.96885 2.05086,1.99226 2.05086,5.66426 0,4.82439 -2.8712,7.18775 -2.85166,2.34384 -8.73077,2.34384 -2.77354,0 -5.5666,-0.52737 -2.79307,-0.52736 -5.58614,-1.56255 v -6.34788 q 2.79307,1.48443 5.39082,2.24617 2.61728,0.74222 5.03924,0.74222 2.46102,0 3.76966,-0.82034 1.30864,-0.82035 1.30864,-2.34384 0,-1.36723 -0.89847,-2.10945 -0.87894,-0.74221 -3.53528,-1.32817 l -2.91026,-0.64455 q -4.37515,-0.93753 -6.40647,-2.98839 -2.01179,-2.05085 -2.01179,-5.52754 0,-4.35562 2.8126,-6.69945 2.81259,-2.34383 8.08622,-2.34383 2.40242,0 4.94158,0.37111 2.53915,0.35157 5.25409,1.07425 z"
         id="path5213"
         inkscape:connector-curvature="0" />
      <path
         d="m -355.97906,380.73264 h 7.5198 v 11.11367 h 11.09414 v -11.11367 h 7.51979 v 29.16118 h -7.51979 v -12.36371 h -11.09414 v 12.36371 h -7.5198 z"
         id="path5215"
         inkscape:connector-curvature="0" />
      <path
         d="m -322.46227,380.73264 h 20.29368 v 5.68379 h -12.77389 v 5.42988 h 12.01214 v 5.6838 h -12.01214 v 6.67992 h 13.20359 v 5.68379 h -20.72338 z"
         id="path5217"
         inkscape:connector-curvature="0" />
      <path
         d="m -295.11755,380.73264 h 7.5198 v 23.47739 h 13.20359 v 5.68379 h -20.72339 z"
         id="path5219"
         inkscape:connector-curvature="0" />
      <path
         d="m -269.64791,380.73264 h 12.4809 q 5.56661,0 8.53546,2.48056 2.98839,2.46102 2.98839,7.03149 0,4.59001 -2.98839,7.07056 -2.96885,2.46103 -8.53546,2.46103 h -4.96111 v 10.11754 h -7.51979 z m 7.51979,5.44941 v 8.14482 h 4.16031 q 2.18757,0 3.37902,-1.05473 1.19145,-1.07425 1.19145,-3.02745 0,-1.95319 -1.19145,-3.00791 -1.19145,-1.05473 -3.37902,-1.05473 z"
         id="path5221"
         inkscape:connector-curvature="0" />
    </g>
  </g>
</svg>
